<?xml version="1.0" encoding="UTF-8" standalone="no"?>
<!DOCTYPE svg PUBLIC "-//W3C//DTD SVG 1.1//EN"
 "http://www.w3.org/Graphics/SVG/1.1/DTD/svg11.dtd">
<!-- Generated by graphviz version 2.50.0 (20211204.2007)
 -->
<!-- Pages: 1 -->
<svg width="392pt" height="404pt"
 viewBox="0.00 0.00 392.50 404.00" xmlns="http://www.w3.org/2000/svg" xmlns:xlink="http://www.w3.org/1999/xlink">
<g id="graph0" class="graph" transform="scale(1 1) rotate(0) translate(4 400)">
<polygon fill="white" stroke="transparent" points="-4,4 -4,-400 388.5,-400 388.5,4 -4,4"/>
<!-- 1179381257 -->
<g id="node1" class="node">
<title>1179381257</title>
<ellipse fill="none" stroke="black" cx="213" cy="-378" rx="27" ry="18"/>
<text text-anchor="middle" x="213" y="-374.3" font-family="Times New Roman,serif" font-size="14.00">S</text>
</g>
<!-- 876563773 -->
<g id="node2" class="node">
<title>876563773</title>
<ellipse fill="none" stroke="black" cx="102" cy="-306" rx="27" ry="18"/>
<text text-anchor="middle" x="102" y="-302.3" font-family="Times New Roman,serif" font-size="14.00">F</text>
</g>
<!-- 1179381257&#45;&gt;876563773 -->
<g id="edge6" class="edge">
<title>1179381257&#45;&gt;876563773</title>
<path fill="none" stroke="black" d="M193.92,-364.97C176.29,-353.85 149.88,-337.19 129.88,-324.58"/>
<polygon fill="black" stroke="black" points="131.53,-321.48 121.2,-319.11 127.8,-327.41 131.53,-321.48"/>
</g>
<!-- 87765719 -->
<g id="node8" class="node">
<title>87765719</title>
<ellipse fill="none" stroke="black" cx="177" cy="-306" rx="27" ry="18"/>
<text text-anchor="middle" x="177" y="-302.3" font-family="Times New Roman,serif" font-size="14.00" fill="blue">(</text>
</g>
<!-- 1179381257&#45;&gt;87765719 -->
<g id="edge7" class="edge">
<title>1179381257&#45;&gt;87765719</title>
<path fill="none" stroke="black" d="M204.65,-360.76C200.29,-352.28 194.85,-341.71 189.96,-332.2"/>
<polygon fill="black" stroke="black" points="192.99,-330.44 185.3,-323.15 186.77,-333.64 192.99,-330.44"/>
</g>
<!-- 1308244637 -->
<g id="node9" class="node">
<title>1308244637</title>
<ellipse fill="none" stroke="black" cx="249" cy="-306" rx="27" ry="18"/>
<text text-anchor="middle" x="249" y="-302.3" font-family="Times New Roman,serif" font-size="14.00">args</text>
</g>
<!-- 1179381257&#45;&gt;1308244637 -->
<g id="edge17" class="edge">
<title>1179381257&#45;&gt;1308244637</title>
<path fill="none" stroke="black" d="M221.35,-360.76C225.71,-352.28 231.15,-341.71 236.04,-332.2"/>
<polygon fill="black" stroke="black" points="239.23,-333.64 240.7,-323.15 233.01,-330.44 239.23,-333.64"/>
</g>
<!-- 1860944798 -->
<g id="node19" class="node">
<title>1860944798</title>
<ellipse fill="none" stroke="black" cx="321" cy="-306" rx="27" ry="18"/>
<text text-anchor="middle" x="321" y="-302.3" font-family="Times New Roman,serif" font-size="14.00" fill="blue">);</text>
</g>
<!-- 1179381257&#45;&gt;1860944798 -->
<g id="edge18" class="edge">
<title>1179381257&#45;&gt;1860944798</title>
<path fill="none" stroke="black" d="M231.81,-364.81C249,-353.67 274.62,-337.06 293.99,-324.5"/>
<polygon fill="black" stroke="black" points="295.92,-327.43 302.4,-319.05 292.11,-321.56 295.92,-327.43"/>
</g>
<!-- 2107447833 -->
<g id="node3" class="node">
<title>2107447833</title>
<ellipse fill="none" stroke="black" cx="27" cy="-234" rx="27" ry="18"/>
<text text-anchor="middle" x="27" y="-230.3" font-family="Times New Roman,serif" font-size="14.00" fill="blue">type</text>
</g>
<!-- 876563773&#45;&gt;2107447833 -->
<g id="edge1" class="edge">
<title>876563773&#45;&gt;2107447833</title>
<path fill="none" stroke="black" d="M86.82,-290.83C76.15,-280.87 61.68,-267.37 49.65,-256.14"/>
<polygon fill="black" stroke="black" points="51.85,-253.41 42.15,-249.14 47.08,-258.53 51.85,-253.41"/>
</g>
<!-- 1122134344 -->
<g id="node4" class="node">
<title>1122134344</title>
<ellipse fill="none" stroke="black" cx="99" cy="-234" rx="27" ry="18"/>
<text text-anchor="middle" x="99" y="-230.3" font-family="Times New Roman,serif" font-size="14.00">P</text>
</g>
<!-- 876563773&#45;&gt;1122134344 -->
<g id="edge4" class="edge">
<title>876563773&#45;&gt;1122134344</title>
<path fill="none" stroke="black" d="M101.26,-287.7C100.93,-279.98 100.53,-270.71 100.16,-262.11"/>
<polygon fill="black" stroke="black" points="103.66,-261.95 99.73,-252.1 96.66,-262.25 103.66,-261.95"/>
</g>
<!-- 1471868639 -->
<g id="node7" class="node">
<title>1471868639</title>
<ellipse fill="none" stroke="black" cx="174" cy="-234" rx="29.8" ry="18"/>
<text text-anchor="middle" x="174" y="-230.3" font-family="Times New Roman,serif" font-size="14.00" fill="blue">name</text>
</g>
<!-- 876563773&#45;&gt;1471868639 -->
<g id="edge5" class="edge">
<title>876563773&#45;&gt;1471868639</title>
<path fill="none" stroke="black" d="M116.57,-290.83C126.59,-281.1 140.08,-267.98 151.47,-256.9"/>
<polygon fill="black" stroke="black" points="154.23,-259.11 158.96,-249.63 149.35,-254.09 154.23,-259.11"/>
</g>
<!-- 60559178 -->
<g id="node5" class="node">
<title>60559178</title>
<ellipse fill="none" stroke="black" cx="30" cy="-162" rx="27" ry="18"/>
<text text-anchor="middle" x="30" y="-158.3" font-family="Times New Roman,serif" font-size="14.00" fill="blue">*</text>
</g>
<!-- 1122134344&#45;&gt;60559178 -->
<g id="edge2" class="edge">
<title>1122134344&#45;&gt;60559178</title>
<path fill="none" stroke="black" d="M84.7,-218.5C75.08,-208.73 62.22,-195.69 51.39,-184.7"/>
<polygon fill="black" stroke="black" points="53.79,-182.15 44.28,-177.49 48.81,-187.06 53.79,-182.15"/>
</g>
<!-- 395629617 -->
<g id="node6" class="node">
<title>395629617</title>
<ellipse fill="none" stroke="black" cx="102" cy="-162" rx="27" ry="18"/>
<text text-anchor="middle" x="102" y="-158.3" font-family="Times New Roman,serif" font-size="14.00">P</text>
</g>
<!-- 1122134344&#45;&gt;395629617 -->
<g id="edge3" class="edge">
<title>1122134344&#45;&gt;395629617</title>
<path fill="none" stroke="black" d="M99.74,-215.7C100.07,-207.98 100.47,-198.71 100.84,-190.11"/>
<polygon fill="black" stroke="black" points="104.34,-190.25 101.27,-180.1 97.34,-189.95 104.34,-190.25"/>
</g>
<!-- 1967892594 -->
<g id="node10" class="node">
<title>1967892594</title>
<ellipse fill="none" stroke="black" cx="249" cy="-234" rx="27" ry="18"/>
<text text-anchor="middle" x="249" y="-230.3" font-family="Times New Roman,serif" font-size="14.00">T</text>
</g>
<!-- 1308244637&#45;&gt;1967892594 -->
<g id="edge15" class="edge">
<title>1308244637&#45;&gt;1967892594</title>
<path fill="none" stroke="black" d="M249,-287.7C249,-279.98 249,-270.71 249,-262.11"/>
<polygon fill="black" stroke="black" points="252.5,-262.1 249,-252.1 245.5,-262.1 252.5,-262.1"/>
</g>
<!-- 342597804 -->
<g id="node18" class="node">
<title>342597804</title>
<ellipse fill="none" stroke="black" cx="321" cy="-234" rx="27" ry="18"/>
<text text-anchor="middle" x="321" y="-230.3" font-family="Times New Roman,serif" font-size="14.00">X</text>
</g>
<!-- 1308244637&#45;&gt;342597804 -->
<g id="edge16" class="edge">
<title>1308244637&#45;&gt;342597804</title>
<path fill="none" stroke="black" d="M263.57,-290.83C273.75,-280.94 287.52,-267.55 299.03,-256.36"/>
<polygon fill="black" stroke="black" points="301.47,-258.87 306.2,-249.38 296.59,-253.85 301.47,-258.87"/>
</g>
<!-- 1413653265 -->
<g id="node11" class="node">
<title>1413653265</title>
<ellipse fill="none" stroke="black" cx="177" cy="-162" rx="27" ry="18"/>
<text text-anchor="middle" x="177" y="-158.3" font-family="Times New Roman,serif" font-size="14.00" fill="blue">type</text>
</g>
<!-- 1967892594&#45;&gt;1413653265 -->
<g id="edge8" class="edge">
<title>1967892594&#45;&gt;1413653265</title>
<path fill="none" stroke="black" d="M234.43,-218.83C224.25,-208.94 210.48,-195.55 198.97,-184.36"/>
<polygon fill="black" stroke="black" points="201.41,-181.85 191.8,-177.38 196.53,-186.87 201.41,-181.85"/>
</g>
<!-- 542060780 -->
<g id="node12" class="node">
<title>542060780</title>
<ellipse fill="none" stroke="black" cx="249" cy="-162" rx="27" ry="18"/>
<text text-anchor="middle" x="249" y="-158.3" font-family="Times New Roman,serif" font-size="14.00">P</text>
</g>
<!-- 1967892594&#45;&gt;542060780 -->
<g id="edge13" class="edge">
<title>1967892594&#45;&gt;542060780</title>
<path fill="none" stroke="black" d="M249,-215.7C249,-207.98 249,-198.71 249,-190.11"/>
<polygon fill="black" stroke="black" points="252.5,-190.1 249,-180.1 245.5,-190.1 252.5,-190.1"/>
</g>
<!-- 237351678 -->
<g id="node17" class="node">
<title>237351678</title>
<ellipse fill="none" stroke="black" cx="339" cy="-162" rx="45.49" ry="18"/>
<text text-anchor="middle" x="339" y="-158.3" font-family="Times New Roman,serif" font-size="14.00">ext_name</text>
</g>
<!-- 1967892594&#45;&gt;237351678 -->
<g id="edge14" class="edge">
<title>1967892594&#45;&gt;237351678</title>
<path fill="none" stroke="black" d="M265.93,-219.83C278.61,-209.97 296.25,-196.25 311.02,-184.76"/>
<polygon fill="black" stroke="black" points="313.58,-187.2 319.33,-178.3 309.28,-181.68 313.58,-187.2"/>
</g>
<!-- 1418621776 -->
<g id="node13" class="node">
<title>1418621776</title>
<ellipse fill="none" stroke="black" cx="213" cy="-90" rx="27" ry="18"/>
<text text-anchor="middle" x="213" y="-86.3" font-family="Times New Roman,serif" font-size="14.00" fill="blue">*</text>
</g>
<!-- 542060780&#45;&gt;1418621776 -->
<g id="edge9" class="edge">
<title>542060780&#45;&gt;1418621776</title>
<path fill="none" stroke="black" d="M240.65,-144.76C236.29,-136.28 230.85,-125.71 225.96,-116.2"/>
<polygon fill="black" stroke="black" points="228.99,-114.44 221.3,-107.15 222.77,-117.64 228.99,-114.44"/>
</g>
<!-- 125622176 -->
<g id="node14" class="node">
<title>125622176</title>
<ellipse fill="none" stroke="black" cx="285" cy="-90" rx="27" ry="18"/>
<text text-anchor="middle" x="285" y="-86.3" font-family="Times New Roman,serif" font-size="14.00">P</text>
</g>
<!-- 542060780&#45;&gt;125622176 -->
<g id="edge12" class="edge">
<title>542060780&#45;&gt;125622176</title>
<path fill="none" stroke="black" d="M257.35,-144.76C261.71,-136.28 267.15,-125.71 272.04,-116.2"/>
<polygon fill="black" stroke="black" points="275.23,-117.64 276.7,-107.15 269.01,-114.44 275.23,-117.64"/>
</g>
<!-- 446073433 -->
<g id="node15" class="node">
<title>446073433</title>
<ellipse fill="none" stroke="black" cx="249" cy="-18" rx="27" ry="18"/>
<text text-anchor="middle" x="249" y="-14.3" font-family="Times New Roman,serif" font-size="14.00" fill="blue">*</text>
</g>
<!-- 125622176&#45;&gt;446073433 -->
<g id="edge10" class="edge">
<title>125622176&#45;&gt;446073433</title>
<path fill="none" stroke="black" d="M276.65,-72.76C272.29,-64.28 266.85,-53.71 261.96,-44.2"/>
<polygon fill="black" stroke="black" points="264.99,-42.44 257.3,-35.15 258.77,-45.64 264.99,-42.44"/>
</g>
<!-- 1181199958 -->
<g id="node16" class="node">
<title>1181199958</title>
<ellipse fill="none" stroke="black" cx="321" cy="-18" rx="27" ry="18"/>
<text text-anchor="middle" x="321" y="-14.3" font-family="Times New Roman,serif" font-size="14.00">P</text>
</g>
<!-- 125622176&#45;&gt;1181199958 -->
<g id="edge11" class="edge">
<title>125622176&#45;&gt;1181199958</title>
<path fill="none" stroke="black" d="M293.35,-72.76C297.71,-64.28 303.15,-53.71 308.04,-44.2"/>
<polygon fill="black" stroke="black" points="311.23,-45.64 312.7,-35.15 305.01,-42.44 311.23,-45.64"/>
</g>
</g>
</svg>
