<?xml version="1.0" encoding="UTF-8" standalone="no"?>
<!DOCTYPE svg PUBLIC "-//W3C//DTD SVG 1.1//EN"
 "http://www.w3.org/Graphics/SVG/1.1/DTD/svg11.dtd">
<!-- Generated by graphviz version 2.50.0 (20211204.2007)
 -->
<!-- Pages: 1 -->
<svg width="806pt" height="404pt"
 viewBox="0.00 0.00 806.50 404.00" xmlns="http://www.w3.org/2000/svg" xmlns:xlink="http://www.w3.org/1999/xlink">
<g id="graph0" class="graph" transform="scale(1 1) rotate(0) translate(4 400)">
<polygon fill="white" stroke="transparent" points="-4,4 -4,-400 802.5,-400 802.5,4 -4,4"/>
<!-- 1620303253 -->
<g id="node1" class="node">
<title>1620303253</title>
<ellipse fill="none" stroke="black" cx="213" cy="-378" rx="27" ry="18"/>
<text text-anchor="middle" x="213" y="-374.3" font-family="Times New Roman,serif" font-size="14.00">S</text>
</g>
<!-- 182738614 -->
<g id="node2" class="node">
<title>182738614</title>
<ellipse fill="none" stroke="black" cx="102" cy="-306" rx="27" ry="18"/>
<text text-anchor="middle" x="102" y="-302.3" font-family="Times New Roman,serif" font-size="14.00">F</text>
</g>
<!-- 1620303253&#45;&gt;182738614 -->
<g id="edge4" class="edge">
<title>1620303253&#45;&gt;182738614</title>
<path fill="none" stroke="black" d="M193.92,-364.97C176.29,-353.85 149.88,-337.19 129.88,-324.58"/>
<polygon fill="black" stroke="black" points="131.53,-321.48 121.2,-319.11 127.8,-327.41 131.53,-321.48"/>
</g>
<!-- 94345706 -->
<g id="node6" class="node">
<title>94345706</title>
<ellipse fill="none" stroke="black" cx="177" cy="-306" rx="27" ry="18"/>
<text text-anchor="middle" x="177" y="-302.3" font-family="Times New Roman,serif" font-size="14.00" fill="blue">(</text>
</g>
<!-- 1620303253&#45;&gt;94345706 -->
<g id="edge5" class="edge">
<title>1620303253&#45;&gt;94345706</title>
<path fill="none" stroke="black" d="M204.65,-360.76C200.29,-352.28 194.85,-341.71 189.96,-332.2"/>
<polygon fill="black" stroke="black" points="192.99,-330.44 185.3,-323.15 186.77,-333.64 192.99,-330.44"/>
</g>
<!-- 2094411587 -->
<g id="node7" class="node">
<title>2094411587</title>
<ellipse fill="none" stroke="black" cx="249" cy="-306" rx="27" ry="18"/>
<text text-anchor="middle" x="249" y="-302.3" font-family="Times New Roman,serif" font-size="14.00">args</text>
</g>
<!-- 1620303253&#45;&gt;2094411587 -->
<g id="edge23" class="edge">
<title>1620303253&#45;&gt;2094411587</title>
<path fill="none" stroke="black" d="M221.35,-360.76C225.71,-352.28 231.15,-341.71 236.04,-332.2"/>
<polygon fill="black" stroke="black" points="239.23,-333.64 240.7,-323.15 233.01,-330.44 239.23,-333.64"/>
</g>
<!-- 1833638914 -->
<g id="node25" class="node">
<title>1833638914</title>
<ellipse fill="none" stroke="black" cx="321" cy="-306" rx="27" ry="18"/>
<text text-anchor="middle" x="321" y="-302.3" font-family="Times New Roman,serif" font-size="14.00" fill="blue">);</text>
</g>
<!-- 1620303253&#45;&gt;1833638914 -->
<g id="edge24" class="edge">
<title>1620303253&#45;&gt;1833638914</title>
<path fill="none" stroke="black" d="M231.81,-364.81C249,-353.67 274.62,-337.06 293.99,-324.5"/>
<polygon fill="black" stroke="black" points="295.92,-327.43 302.4,-319.05 292.11,-321.56 295.92,-327.43"/>
</g>
<!-- 644166178 -->
<g id="node3" class="node">
<title>644166178</title>
<ellipse fill="none" stroke="black" cx="27" cy="-234" rx="27" ry="18"/>
<text text-anchor="middle" x="27" y="-230.3" font-family="Times New Roman,serif" font-size="14.00" fill="blue">type</text>
</g>
<!-- 182738614&#45;&gt;644166178 -->
<g id="edge1" class="edge">
<title>182738614&#45;&gt;644166178</title>
<path fill="none" stroke="black" d="M86.82,-290.83C76.15,-280.87 61.68,-267.37 49.65,-256.14"/>
<polygon fill="black" stroke="black" points="51.85,-253.41 42.15,-249.14 47.08,-258.53 51.85,-253.41"/>
</g>
<!-- 892529689 -->
<g id="node4" class="node">
<title>892529689</title>
<ellipse fill="none" stroke="black" cx="99" cy="-234" rx="27" ry="18"/>
<text text-anchor="middle" x="99" y="-230.3" font-family="Times New Roman,serif" font-size="14.00">P</text>
</g>
<!-- 182738614&#45;&gt;892529689 -->
<g id="edge2" class="edge">
<title>182738614&#45;&gt;892529689</title>
<path fill="none" stroke="black" d="M101.26,-287.7C100.93,-279.98 100.53,-270.71 100.16,-262.11"/>
<polygon fill="black" stroke="black" points="103.66,-261.95 99.73,-252.1 96.66,-262.25 103.66,-261.95"/>
</g>
<!-- 1757676444 -->
<g id="node5" class="node">
<title>1757676444</title>
<ellipse fill="none" stroke="black" cx="174" cy="-234" rx="29.8" ry="18"/>
<text text-anchor="middle" x="174" y="-230.3" font-family="Times New Roman,serif" font-size="14.00" fill="blue">name</text>
</g>
<!-- 182738614&#45;&gt;1757676444 -->
<g id="edge3" class="edge">
<title>182738614&#45;&gt;1757676444</title>
<path fill="none" stroke="black" d="M116.57,-290.83C126.59,-281.1 140.08,-267.98 151.47,-256.9"/>
<polygon fill="black" stroke="black" points="154.23,-259.11 158.96,-249.63 149.35,-254.09 154.23,-259.11"/>
</g>
<!-- 1047503754 -->
<g id="node8" class="node">
<title>1047503754</title>
<ellipse fill="none" stroke="black" cx="249" cy="-234" rx="27" ry="18"/>
<text text-anchor="middle" x="249" y="-230.3" font-family="Times New Roman,serif" font-size="14.00">T</text>
</g>
<!-- 2094411587&#45;&gt;1047503754 -->
<g id="edge9" class="edge">
<title>2094411587&#45;&gt;1047503754</title>
<path fill="none" stroke="black" d="M249,-287.7C249,-279.98 249,-270.71 249,-262.11"/>
<polygon fill="black" stroke="black" points="252.5,-262.1 249,-252.1 245.5,-262.1 252.5,-262.1"/>
</g>
<!-- 1782704802 -->
<g id="node12" class="node">
<title>1782704802</title>
<ellipse fill="none" stroke="black" cx="420" cy="-234" rx="27" ry="18"/>
<text text-anchor="middle" x="420" y="-230.3" font-family="Times New Roman,serif" font-size="14.00">X</text>
</g>
<!-- 2094411587&#45;&gt;1782704802 -->
<g id="edge22" class="edge">
<title>2094411587&#45;&gt;1782704802</title>
<path fill="none" stroke="black" d="M270.21,-294.69C275.05,-292.43 280.18,-290.08 285,-288 319.59,-273.06 359.86,-257.48 387.36,-247.11"/>
<polygon fill="black" stroke="black" points="388.75,-250.33 396.88,-243.54 386.29,-243.78 388.75,-250.33"/>
</g>
<!-- 670035812 -->
<g id="node9" class="node">
<title>670035812</title>
<ellipse fill="none" stroke="black" cx="132" cy="-162" rx="27" ry="18"/>
<text text-anchor="middle" x="132" y="-158.3" font-family="Times New Roman,serif" font-size="14.00" fill="blue">type</text>
</g>
<!-- 1047503754&#45;&gt;670035812 -->
<g id="edge6" class="edge">
<title>1047503754&#45;&gt;670035812</title>
<path fill="none" stroke="black" d="M229.42,-221.28C210.52,-209.98 181.71,-192.74 160.31,-179.94"/>
<polygon fill="black" stroke="black" points="162.03,-176.89 151.65,-174.75 158.43,-182.89 162.03,-176.89"/>
</g>
<!-- 1870647526 -->
<g id="node10" class="node">
<title>1870647526</title>
<ellipse fill="none" stroke="black" cx="204" cy="-162" rx="27" ry="18"/>
<text text-anchor="middle" x="204" y="-158.3" font-family="Times New Roman,serif" font-size="14.00">P</text>
</g>
<!-- 1047503754&#45;&gt;1870647526 -->
<g id="edge7" class="edge">
<title>1047503754&#45;&gt;1870647526</title>
<path fill="none" stroke="black" d="M238.79,-217.12C233.15,-208.34 226.03,-197.26 219.7,-187.42"/>
<polygon fill="black" stroke="black" points="222.52,-185.34 214.17,-178.82 216.63,-189.13 222.52,-185.34"/>
</g>
<!-- 1204167249 -->
<g id="node11" class="node">
<title>1204167249</title>
<ellipse fill="none" stroke="black" cx="294" cy="-162" rx="45.49" ry="18"/>
<text text-anchor="middle" x="294" y="-158.3" font-family="Times New Roman,serif" font-size="14.00">ext_name</text>
</g>
<!-- 1047503754&#45;&gt;1204167249 -->
<g id="edge8" class="edge">
<title>1047503754&#45;&gt;1204167249</title>
<path fill="none" stroke="black" d="M259.21,-217.12C264.69,-208.59 271.57,-197.89 277.77,-188.25"/>
<polygon fill="black" stroke="black" points="280.74,-190.1 283.2,-179.8 274.85,-186.32 280.74,-190.1"/>
</g>
<!-- 1722023916 -->
<g id="node13" class="node">
<title>1722023916</title>
<ellipse fill="none" stroke="black" cx="384" cy="-162" rx="27" ry="18"/>
<text text-anchor="middle" x="384" y="-158.3" font-family="Times New Roman,serif" font-size="14.00" fill="blue">,</text>
</g>
<!-- 1782704802&#45;&gt;1722023916 -->
<g id="edge10" class="edge">
<title>1782704802&#45;&gt;1722023916</title>
<path fill="none" stroke="black" d="M411.65,-216.76C407.29,-208.28 401.85,-197.71 396.96,-188.2"/>
<polygon fill="black" stroke="black" points="399.99,-186.44 392.3,-179.15 393.77,-189.64 399.99,-186.44"/>
</g>
<!-- 1006485584 -->
<g id="node14" class="node">
<title>1006485584</title>
<ellipse fill="none" stroke="black" cx="456" cy="-162" rx="27" ry="18"/>
<text text-anchor="middle" x="456" y="-158.3" font-family="Times New Roman,serif" font-size="14.00">T</text>
</g>
<!-- 1782704802&#45;&gt;1006485584 -->
<g id="edge14" class="edge">
<title>1782704802&#45;&gt;1006485584</title>
<path fill="none" stroke="black" d="M428.35,-216.76C432.71,-208.28 438.15,-197.71 443.04,-188.2"/>
<polygon fill="black" stroke="black" points="446.23,-189.64 447.7,-179.15 440.01,-186.44 446.23,-189.64"/>
</g>
<!-- 1750905143 -->
<g id="node18" class="node">
<title>1750905143</title>
<ellipse fill="none" stroke="black" cx="627" cy="-162" rx="27" ry="18"/>
<text text-anchor="middle" x="627" y="-158.3" font-family="Times New Roman,serif" font-size="14.00">X</text>
</g>
<!-- 1782704802&#45;&gt;1750905143 -->
<g id="edge21" class="edge">
<title>1782704802&#45;&gt;1750905143</title>
<path fill="none" stroke="black" d="M443.75,-224.97C480.71,-212.47 552.12,-188.32 594.05,-174.14"/>
<polygon fill="black" stroke="black" points="595.18,-177.46 603.53,-170.94 592.94,-170.82 595.18,-177.46"/>
</g>
<!-- 2009787198 -->
<g id="node15" class="node">
<title>2009787198</title>
<ellipse fill="none" stroke="black" cx="339" cy="-90" rx="27" ry="18"/>
<text text-anchor="middle" x="339" y="-86.3" font-family="Times New Roman,serif" font-size="14.00" fill="blue">type</text>
</g>
<!-- 1006485584&#45;&gt;2009787198 -->
<g id="edge11" class="edge">
<title>1006485584&#45;&gt;2009787198</title>
<path fill="none" stroke="black" d="M436.42,-149.28C417.52,-137.98 388.71,-120.74 367.31,-107.94"/>
<polygon fill="black" stroke="black" points="369.03,-104.89 358.65,-102.75 365.43,-110.89 369.03,-104.89"/>
</g>
<!-- 32017212 -->
<g id="node16" class="node">
<title>32017212</title>
<ellipse fill="none" stroke="black" cx="411" cy="-90" rx="27" ry="18"/>
<text text-anchor="middle" x="411" y="-86.3" font-family="Times New Roman,serif" font-size="14.00">P</text>
</g>
<!-- 1006485584&#45;&gt;32017212 -->
<g id="edge12" class="edge">
<title>1006485584&#45;&gt;32017212</title>
<path fill="none" stroke="black" d="M445.79,-145.12C440.15,-136.34 433.03,-125.26 426.7,-115.42"/>
<polygon fill="black" stroke="black" points="429.52,-113.34 421.17,-106.82 423.63,-117.13 429.52,-113.34"/>
</g>
<!-- 1121454968 -->
<g id="node17" class="node">
<title>1121454968</title>
<ellipse fill="none" stroke="black" cx="501" cy="-90" rx="45.49" ry="18"/>
<text text-anchor="middle" x="501" y="-86.3" font-family="Times New Roman,serif" font-size="14.00">ext_name</text>
</g>
<!-- 1006485584&#45;&gt;1121454968 -->
<g id="edge13" class="edge">
<title>1006485584&#45;&gt;1121454968</title>
<path fill="none" stroke="black" d="M466.21,-145.12C471.69,-136.59 478.57,-125.89 484.77,-116.25"/>
<polygon fill="black" stroke="black" points="487.74,-118.1 490.2,-107.8 481.85,-114.32 487.74,-118.1"/>
</g>
<!-- 466505482 -->
<g id="node19" class="node">
<title>466505482</title>
<ellipse fill="none" stroke="black" cx="591" cy="-90" rx="27" ry="18"/>
<text text-anchor="middle" x="591" y="-86.3" font-family="Times New Roman,serif" font-size="14.00" fill="blue">,</text>
</g>
<!-- 1750905143&#45;&gt;466505482 -->
<g id="edge15" class="edge">
<title>1750905143&#45;&gt;466505482</title>
<path fill="none" stroke="black" d="M618.65,-144.76C614.29,-136.28 608.85,-125.71 603.96,-116.2"/>
<polygon fill="black" stroke="black" points="606.99,-114.44 599.3,-107.15 600.77,-117.64 606.99,-114.44"/>
</g>
<!-- 1615780336 -->
<g id="node20" class="node">
<title>1615780336</title>
<ellipse fill="none" stroke="black" cx="663" cy="-90" rx="27" ry="18"/>
<text text-anchor="middle" x="663" y="-86.3" font-family="Times New Roman,serif" font-size="14.00">T</text>
</g>
<!-- 1750905143&#45;&gt;1615780336 -->
<g id="edge19" class="edge">
<title>1750905143&#45;&gt;1615780336</title>
<path fill="none" stroke="black" d="M635.35,-144.76C639.71,-136.28 645.15,-125.71 650.04,-116.2"/>
<polygon fill="black" stroke="black" points="653.23,-117.64 654.7,-107.15 647.01,-114.44 653.23,-117.64"/>
</g>
<!-- 1783593083 -->
<g id="node24" class="node">
<title>1783593083</title>
<ellipse fill="none" stroke="black" cx="735" cy="-90" rx="27" ry="18"/>
<text text-anchor="middle" x="735" y="-86.3" font-family="Times New Roman,serif" font-size="14.00">X</text>
</g>
<!-- 1750905143&#45;&gt;1783593083 -->
<g id="edge20" class="edge">
<title>1750905143&#45;&gt;1783593083</title>
<path fill="none" stroke="black" d="M645.81,-148.81C663,-137.67 688.62,-121.06 707.99,-108.5"/>
<polygon fill="black" stroke="black" points="709.92,-111.43 716.4,-103.05 706.11,-105.56 709.92,-111.43"/>
</g>
<!-- 1580893732 -->
<g id="node21" class="node">
<title>1580893732</title>
<ellipse fill="none" stroke="black" cx="591" cy="-18" rx="27" ry="18"/>
<text text-anchor="middle" x="591" y="-14.3" font-family="Times New Roman,serif" font-size="14.00" fill="blue">type</text>
</g>
<!-- 1615780336&#45;&gt;1580893732 -->
<g id="edge16" class="edge">
<title>1615780336&#45;&gt;1580893732</title>
<path fill="none" stroke="black" d="M648.43,-74.83C638.25,-64.94 624.48,-51.55 612.97,-40.36"/>
<polygon fill="black" stroke="black" points="615.41,-37.85 605.8,-33.38 610.53,-42.87 615.41,-37.85"/>
</g>
<!-- 1547425104 -->
<g id="node22" class="node">
<title>1547425104</title>
<ellipse fill="none" stroke="black" cx="663" cy="-18" rx="27" ry="18"/>
<text text-anchor="middle" x="663" y="-14.3" font-family="Times New Roman,serif" font-size="14.00">P</text>
</g>
<!-- 1615780336&#45;&gt;1547425104 -->
<g id="edge17" class="edge">
<title>1615780336&#45;&gt;1547425104</title>
<path fill="none" stroke="black" d="M663,-71.7C663,-63.98 663,-54.71 663,-46.11"/>
<polygon fill="black" stroke="black" points="666.5,-46.1 663,-36.1 659.5,-46.1 666.5,-46.1"/>
</g>
<!-- 152134087 -->
<g id="node23" class="node">
<title>152134087</title>
<ellipse fill="none" stroke="black" cx="753" cy="-18" rx="45.49" ry="18"/>
<text text-anchor="middle" x="753" y="-14.3" font-family="Times New Roman,serif" font-size="14.00">ext_name</text>
</g>
<!-- 1615780336&#45;&gt;152134087 -->
<g id="edge18" class="edge">
<title>1615780336&#45;&gt;152134087</title>
<path fill="none" stroke="black" d="M679.93,-75.83C692.61,-65.97 710.25,-52.25 725.02,-40.76"/>
<polygon fill="black" stroke="black" points="727.58,-43.2 733.33,-34.3 723.28,-37.68 727.58,-43.2"/>
</g>
</g>
</svg>
