<?xml version="1.0" encoding="UTF-8" standalone="no"?>
<!DOCTYPE svg PUBLIC "-//W3C//DTD SVG 1.1//EN"
 "http://www.w3.org/Graphics/SVG/1.1/DTD/svg11.dtd">
<!-- Generated by graphviz version 2.50.0 (20211204.2007)
 -->
<!-- Pages: 1 -->
<svg width="350pt" height="188pt"
 viewBox="0.00 0.00 350.00 188.00" xmlns="http://www.w3.org/2000/svg" xmlns:xlink="http://www.w3.org/1999/xlink">
<g id="graph0" class="graph" transform="scale(1 1) rotate(0) translate(4 184)">
<polygon fill="white" stroke="transparent" points="-4,4 -4,-184 346,-184 346,4 -4,4"/>
<!-- 1418370913 -->
<g id="node1" class="node">
<title>1418370913</title>
<ellipse fill="none" stroke="black" cx="207" cy="-162" rx="27" ry="18"/>
<text text-anchor="middle" x="207" y="-158.3" font-family="Times New Roman,serif" font-size="14.00">S</text>
</g>
<!-- 1410986873 -->
<g id="node2" class="node">
<title>1410986873</title>
<ellipse fill="none" stroke="black" cx="99" cy="-90" rx="27" ry="18"/>
<text text-anchor="middle" x="99" y="-86.3" font-family="Times New Roman,serif" font-size="14.00">F</text>
</g>
<!-- 1418370913&#45;&gt;1410986873 -->
<g id="edge4" class="edge">
<title>1418370913&#45;&gt;1410986873</title>
<path fill="none" stroke="black" d="M188.19,-148.81C171,-137.67 145.38,-121.06 126.01,-108.5"/>
<polygon fill="black" stroke="black" points="127.89,-105.56 117.6,-103.05 124.08,-111.43 127.89,-105.56"/>
</g>
<!-- 2110245805 -->
<g id="node6" class="node">
<title>2110245805</title>
<ellipse fill="none" stroke="black" cx="171" cy="-90" rx="27" ry="18"/>
<text text-anchor="middle" x="171" y="-86.3" font-family="Times New Roman,serif" font-size="14.00" fill="blue">(</text>
</g>
<!-- 1418370913&#45;&gt;2110245805 -->
<g id="edge5" class="edge">
<title>1418370913&#45;&gt;2110245805</title>
<path fill="none" stroke="black" d="M198.65,-144.76C194.29,-136.28 188.85,-125.71 183.96,-116.2"/>
<polygon fill="black" stroke="black" points="186.99,-114.44 179.3,-107.15 180.77,-117.64 186.99,-114.44"/>
</g>
<!-- 221036634 -->
<g id="node7" class="node">
<title>221036634</title>
<ellipse fill="none" stroke="black" cx="243" cy="-90" rx="27" ry="18"/>
<text text-anchor="middle" x="243" y="-86.3" font-family="Times New Roman,serif" font-size="14.00">X</text>
</g>
<!-- 1418370913&#45;&gt;221036634 -->
<g id="edge6" class="edge">
<title>1418370913&#45;&gt;221036634</title>
<path fill="none" stroke="black" d="M215.35,-144.76C219.71,-136.28 225.15,-125.71 230.04,-116.2"/>
<polygon fill="black" stroke="black" points="233.23,-117.64 234.7,-107.15 227.01,-114.44 233.23,-117.64"/>
</g>
<!-- 1335050193 -->
<g id="node8" class="node">
<title>1335050193</title>
<ellipse fill="none" stroke="black" cx="315" cy="-90" rx="27" ry="18"/>
<text text-anchor="middle" x="315" y="-86.3" font-family="Times New Roman,serif" font-size="14.00" fill="blue">);</text>
</g>
<!-- 1418370913&#45;&gt;1335050193 -->
<g id="edge7" class="edge">
<title>1418370913&#45;&gt;1335050193</title>
<path fill="none" stroke="black" d="M225.81,-148.81C243,-137.67 268.62,-121.06 287.99,-108.5"/>
<polygon fill="black" stroke="black" points="289.92,-111.43 296.4,-103.05 286.11,-105.56 289.92,-111.43"/>
</g>
<!-- 1935365522 -->
<g id="node3" class="node">
<title>1935365522</title>
<ellipse fill="none" stroke="black" cx="27" cy="-18" rx="27" ry="18"/>
<text text-anchor="middle" x="27" y="-14.3" font-family="Times New Roman,serif" font-size="14.00" fill="blue">type</text>
</g>
<!-- 1410986873&#45;&gt;1935365522 -->
<g id="edge1" class="edge">
<title>1410986873&#45;&gt;1935365522</title>
<path fill="none" stroke="black" d="M84.43,-74.83C74.25,-64.94 60.48,-51.55 48.97,-40.36"/>
<polygon fill="black" stroke="black" points="51.41,-37.85 41.8,-33.38 46.53,-42.87 51.41,-37.85"/>
</g>
<!-- 1483022288 -->
<g id="node4" class="node">
<title>1483022288</title>
<ellipse fill="none" stroke="black" cx="99" cy="-18" rx="27" ry="18"/>
<text text-anchor="middle" x="99" y="-14.3" font-family="Times New Roman,serif" font-size="14.00">P</text>
</g>
<!-- 1410986873&#45;&gt;1483022288 -->
<g id="edge2" class="edge">
<title>1410986873&#45;&gt;1483022288</title>
<path fill="none" stroke="black" d="M99,-71.7C99,-63.98 99,-54.71 99,-46.11"/>
<polygon fill="black" stroke="black" points="102.5,-46.1 99,-36.1 95.5,-46.1 102.5,-46.1"/>
</g>
<!-- 1159785389 -->
<g id="node5" class="node">
<title>1159785389</title>
<ellipse fill="none" stroke="black" cx="174" cy="-18" rx="29.8" ry="18"/>
<text text-anchor="middle" x="174" y="-14.3" font-family="Times New Roman,serif" font-size="14.00" fill="blue">name</text>
</g>
<!-- 1410986873&#45;&gt;1159785389 -->
<g id="edge3" class="edge">
<title>1410986873&#45;&gt;1159785389</title>
<path fill="none" stroke="black" d="M114.18,-74.83C124.71,-65 138.94,-51.72 150.88,-40.58"/>
<polygon fill="black" stroke="black" points="153.41,-43.01 158.33,-33.63 148.63,-37.89 153.41,-43.01"/>
</g>
</g>
</svg>
