<?xml version="1.0" encoding="UTF-8" standalone="no"?>
<!DOCTYPE svg PUBLIC "-//W3C//DTD SVG 1.1//EN"
 "http://www.w3.org/Graphics/SVG/1.1/DTD/svg11.dtd">
<!-- Generated by graphviz version 2.50.0 (20211204.2007)
 -->
<!-- Pages: 1 -->
<svg width="599pt" height="476pt"
 viewBox="0.00 0.00 599.50 476.00" xmlns="http://www.w3.org/2000/svg" xmlns:xlink="http://www.w3.org/1999/xlink">
<g id="graph0" class="graph" transform="scale(1 1) rotate(0) translate(4 472)">
<polygon fill="white" stroke="transparent" points="-4,4 -4,-472 595.5,-472 595.5,4 -4,4"/>
<!-- 1509563803 -->
<g id="node1" class="node">
<title>1509563803</title>
<ellipse fill="none" stroke="black" cx="213" cy="-450" rx="27" ry="18"/>
<text text-anchor="middle" x="213" y="-446.3" font-family="Times New Roman,serif" font-size="14.00">S</text>
</g>
<!-- 967765295 -->
<g id="node2" class="node">
<title>967765295</title>
<ellipse fill="none" stroke="black" cx="102" cy="-378" rx="27" ry="18"/>
<text text-anchor="middle" x="102" y="-374.3" font-family="Times New Roman,serif" font-size="14.00">F</text>
</g>
<!-- 1509563803&#45;&gt;967765295 -->
<g id="edge4" class="edge">
<title>1509563803&#45;&gt;967765295</title>
<path fill="none" stroke="black" d="M193.92,-436.97C176.29,-425.85 149.88,-409.19 129.88,-396.58"/>
<polygon fill="black" stroke="black" points="131.53,-393.48 121.2,-391.11 127.8,-399.41 131.53,-393.48"/>
</g>
<!-- 1917513796 -->
<g id="node6" class="node">
<title>1917513796</title>
<ellipse fill="none" stroke="black" cx="177" cy="-378" rx="27" ry="18"/>
<text text-anchor="middle" x="177" y="-374.3" font-family="Times New Roman,serif" font-size="14.00" fill="blue">(</text>
</g>
<!-- 1509563803&#45;&gt;1917513796 -->
<g id="edge5" class="edge">
<title>1509563803&#45;&gt;1917513796</title>
<path fill="none" stroke="black" d="M204.65,-432.76C200.29,-424.28 194.85,-413.71 189.96,-404.2"/>
<polygon fill="black" stroke="black" points="192.99,-402.44 185.3,-395.15 186.77,-405.64 192.99,-402.44"/>
</g>
<!-- 1188392295 -->
<g id="node7" class="node">
<title>1188392295</title>
<ellipse fill="none" stroke="black" cx="249" cy="-378" rx="27" ry="18"/>
<text text-anchor="middle" x="249" y="-374.3" font-family="Times New Roman,serif" font-size="14.00">args</text>
</g>
<!-- 1509563803&#45;&gt;1188392295 -->
<g id="edge23" class="edge">
<title>1509563803&#45;&gt;1188392295</title>
<path fill="none" stroke="black" d="M221.35,-432.76C225.71,-424.28 231.15,-413.71 236.04,-404.2"/>
<polygon fill="black" stroke="black" points="239.23,-405.64 240.7,-395.15 233.01,-402.44 239.23,-405.64"/>
</g>
<!-- 226710952 -->
<g id="node25" class="node">
<title>226710952</title>
<ellipse fill="none" stroke="black" cx="321" cy="-378" rx="27" ry="18"/>
<text text-anchor="middle" x="321" y="-374.3" font-family="Times New Roman,serif" font-size="14.00" fill="blue">);</text>
</g>
<!-- 1509563803&#45;&gt;226710952 -->
<g id="edge24" class="edge">
<title>1509563803&#45;&gt;226710952</title>
<path fill="none" stroke="black" d="M231.81,-436.81C249,-425.67 274.62,-409.06 293.99,-396.5"/>
<polygon fill="black" stroke="black" points="295.92,-399.43 302.4,-391.05 292.11,-393.56 295.92,-399.43"/>
</g>
<!-- 1287712235 -->
<g id="node3" class="node">
<title>1287712235</title>
<ellipse fill="none" stroke="black" cx="27" cy="-306" rx="27" ry="18"/>
<text text-anchor="middle" x="27" y="-302.3" font-family="Times New Roman,serif" font-size="14.00" fill="blue">type</text>
</g>
<!-- 967765295&#45;&gt;1287712235 -->
<g id="edge1" class="edge">
<title>967765295&#45;&gt;1287712235</title>
<path fill="none" stroke="black" d="M86.82,-362.83C76.15,-352.87 61.68,-339.37 49.65,-328.14"/>
<polygon fill="black" stroke="black" points="51.85,-325.41 42.15,-321.14 47.08,-330.53 51.85,-325.41"/>
</g>
<!-- 1165897474 -->
<g id="node4" class="node">
<title>1165897474</title>
<ellipse fill="none" stroke="black" cx="99" cy="-306" rx="27" ry="18"/>
<text text-anchor="middle" x="99" y="-302.3" font-family="Times New Roman,serif" font-size="14.00">P</text>
</g>
<!-- 967765295&#45;&gt;1165897474 -->
<g id="edge2" class="edge">
<title>967765295&#45;&gt;1165897474</title>
<path fill="none" stroke="black" d="M101.26,-359.7C100.93,-351.98 100.53,-342.71 100.16,-334.11"/>
<polygon fill="black" stroke="black" points="103.66,-333.95 99.73,-324.1 96.66,-334.25 103.66,-333.95"/>
</g>
<!-- 1551870003 -->
<g id="node5" class="node">
<title>1551870003</title>
<ellipse fill="none" stroke="black" cx="174" cy="-306" rx="29.8" ry="18"/>
<text text-anchor="middle" x="174" y="-302.3" font-family="Times New Roman,serif" font-size="14.00" fill="blue">name</text>
</g>
<!-- 967765295&#45;&gt;1551870003 -->
<g id="edge3" class="edge">
<title>967765295&#45;&gt;1551870003</title>
<path fill="none" stroke="black" d="M116.57,-362.83C126.59,-353.1 140.08,-339.98 151.47,-328.9"/>
<polygon fill="black" stroke="black" points="154.23,-331.11 158.96,-321.63 149.35,-326.09 154.23,-331.11"/>
</g>
<!-- 1442045361 -->
<g id="node8" class="node">
<title>1442045361</title>
<ellipse fill="none" stroke="black" cx="249" cy="-306" rx="27" ry="18"/>
<text text-anchor="middle" x="249" y="-302.3" font-family="Times New Roman,serif" font-size="14.00">T</text>
</g>
<!-- 1188392295&#45;&gt;1442045361 -->
<g id="edge11" class="edge">
<title>1188392295&#45;&gt;1442045361</title>
<path fill="none" stroke="black" d="M249,-359.7C249,-351.98 249,-342.71 249,-334.11"/>
<polygon fill="black" stroke="black" points="252.5,-334.1 249,-324.1 245.5,-334.1 252.5,-334.1"/>
</g>
<!-- 346861221 -->
<g id="node14" class="node">
<title>346861221</title>
<ellipse fill="none" stroke="black" cx="420" cy="-306" rx="27" ry="18"/>
<text text-anchor="middle" x="420" y="-302.3" font-family="Times New Roman,serif" font-size="14.00">X</text>
</g>
<!-- 1188392295&#45;&gt;346861221 -->
<g id="edge22" class="edge">
<title>1188392295&#45;&gt;346861221</title>
<path fill="none" stroke="black" d="M270.21,-366.69C275.05,-364.43 280.18,-362.08 285,-360 319.59,-345.06 359.86,-329.48 387.36,-319.11"/>
<polygon fill="black" stroke="black" points="388.75,-322.33 396.88,-315.54 386.29,-315.78 388.75,-322.33"/>
</g>
<!-- 1182320432 -->
<g id="node9" class="node">
<title>1182320432</title>
<ellipse fill="none" stroke="black" cx="132" cy="-234" rx="27" ry="18"/>
<text text-anchor="middle" x="132" y="-230.3" font-family="Times New Roman,serif" font-size="14.00" fill="blue">type</text>
</g>
<!-- 1442045361&#45;&gt;1182320432 -->
<g id="edge6" class="edge">
<title>1442045361&#45;&gt;1182320432</title>
<path fill="none" stroke="black" d="M229.42,-293.28C210.52,-281.98 181.71,-264.74 160.31,-251.94"/>
<polygon fill="black" stroke="black" points="162.03,-248.89 151.65,-246.75 158.43,-254.89 162.03,-248.89"/>
</g>
<!-- 201556483 -->
<g id="node10" class="node">
<title>201556483</title>
<ellipse fill="none" stroke="black" cx="204" cy="-234" rx="27" ry="18"/>
<text text-anchor="middle" x="204" y="-230.3" font-family="Times New Roman,serif" font-size="14.00">P</text>
</g>
<!-- 1442045361&#45;&gt;201556483 -->
<g id="edge9" class="edge">
<title>1442045361&#45;&gt;201556483</title>
<path fill="none" stroke="black" d="M238.79,-289.12C233.15,-280.34 226.03,-269.26 219.7,-259.42"/>
<polygon fill="black" stroke="black" points="222.52,-257.34 214.17,-250.82 216.63,-261.13 222.52,-257.34"/>
</g>
<!-- 214074868 -->
<g id="node13" class="node">
<title>214074868</title>
<ellipse fill="none" stroke="black" cx="294" cy="-234" rx="45.49" ry="18"/>
<text text-anchor="middle" x="294" y="-230.3" font-family="Times New Roman,serif" font-size="14.00">ext_name</text>
</g>
<!-- 1442045361&#45;&gt;214074868 -->
<g id="edge10" class="edge">
<title>1442045361&#45;&gt;214074868</title>
<path fill="none" stroke="black" d="M259.21,-289.12C264.69,-280.59 271.57,-269.89 277.77,-260.25"/>
<polygon fill="black" stroke="black" points="280.74,-262.1 283.2,-251.8 274.85,-258.32 280.74,-262.1"/>
</g>
<!-- 1734853116 -->
<g id="node11" class="node">
<title>1734853116</title>
<ellipse fill="none" stroke="black" cx="168" cy="-162" rx="27" ry="18"/>
<text text-anchor="middle" x="168" y="-158.3" font-family="Times New Roman,serif" font-size="14.00" fill="blue">*</text>
</g>
<!-- 201556483&#45;&gt;1734853116 -->
<g id="edge7" class="edge">
<title>201556483&#45;&gt;1734853116</title>
<path fill="none" stroke="black" d="M195.65,-216.76C191.29,-208.28 185.85,-197.71 180.96,-188.2"/>
<polygon fill="black" stroke="black" points="183.99,-186.44 176.3,-179.15 177.77,-189.64 183.99,-186.44"/>
</g>
<!-- 703504298 -->
<g id="node12" class="node">
<title>703504298</title>
<ellipse fill="none" stroke="black" cx="240" cy="-162" rx="27" ry="18"/>
<text text-anchor="middle" x="240" y="-158.3" font-family="Times New Roman,serif" font-size="14.00">P</text>
</g>
<!-- 201556483&#45;&gt;703504298 -->
<g id="edge8" class="edge">
<title>201556483&#45;&gt;703504298</title>
<path fill="none" stroke="black" d="M212.35,-216.76C216.71,-208.28 222.15,-197.71 227.04,-188.2"/>
<polygon fill="black" stroke="black" points="230.23,-189.64 231.7,-179.15 224.01,-186.44 230.23,-189.64"/>
</g>
<!-- 146611050 -->
<g id="node15" class="node">
<title>146611050</title>
<ellipse fill="none" stroke="black" cx="384" cy="-234" rx="27" ry="18"/>
<text text-anchor="middle" x="384" y="-230.3" font-family="Times New Roman,serif" font-size="14.00" fill="blue">,</text>
</g>
<!-- 346861221&#45;&gt;146611050 -->
<g id="edge12" class="edge">
<title>346861221&#45;&gt;146611050</title>
<path fill="none" stroke="black" d="M411.65,-288.76C407.29,-280.28 401.85,-269.71 396.96,-260.2"/>
<polygon fill="black" stroke="black" points="399.99,-258.44 392.3,-251.15 393.77,-261.64 399.99,-258.44"/>
</g>
<!-- 1282473384 -->
<g id="node16" class="node">
<title>1282473384</title>
<ellipse fill="none" stroke="black" cx="456" cy="-234" rx="27" ry="18"/>
<text text-anchor="middle" x="456" y="-230.3" font-family="Times New Roman,serif" font-size="14.00">T</text>
</g>
<!-- 346861221&#45;&gt;1282473384 -->
<g id="edge20" class="edge">
<title>346861221&#45;&gt;1282473384</title>
<path fill="none" stroke="black" d="M428.35,-288.76C432.71,-280.28 438.15,-269.71 443.04,-260.2"/>
<polygon fill="black" stroke="black" points="446.23,-261.64 447.7,-251.15 440.01,-258.44 446.23,-261.64"/>
</g>
<!-- 575593575 -->
<g id="node24" class="node">
<title>575593575</title>
<ellipse fill="none" stroke="black" cx="528" cy="-234" rx="27" ry="18"/>
<text text-anchor="middle" x="528" y="-230.3" font-family="Times New Roman,serif" font-size="14.00">X</text>
</g>
<!-- 346861221&#45;&gt;575593575 -->
<g id="edge21" class="edge">
<title>346861221&#45;&gt;575593575</title>
<path fill="none" stroke="black" d="M438.81,-292.81C456,-281.67 481.62,-265.06 500.99,-252.5"/>
<polygon fill="black" stroke="black" points="502.92,-255.43 509.4,-247.05 499.11,-249.56 502.92,-255.43"/>
</g>
<!-- 415138788 -->
<g id="node17" class="node">
<title>415138788</title>
<ellipse fill="none" stroke="black" cx="384" cy="-162" rx="27" ry="18"/>
<text text-anchor="middle" x="384" y="-158.3" font-family="Times New Roman,serif" font-size="14.00" fill="blue">type</text>
</g>
<!-- 1282473384&#45;&gt;415138788 -->
<g id="edge13" class="edge">
<title>1282473384&#45;&gt;415138788</title>
<path fill="none" stroke="black" d="M441.43,-218.83C431.25,-208.94 417.48,-195.55 405.97,-184.36"/>
<polygon fill="black" stroke="black" points="408.41,-181.85 398.8,-177.38 403.53,-186.87 408.41,-181.85"/>
</g>
<!-- 486898233 -->
<g id="node18" class="node">
<title>486898233</title>
<ellipse fill="none" stroke="black" cx="456" cy="-162" rx="27" ry="18"/>
<text text-anchor="middle" x="456" y="-158.3" font-family="Times New Roman,serif" font-size="14.00">P</text>
</g>
<!-- 1282473384&#45;&gt;486898233 -->
<g id="edge18" class="edge">
<title>1282473384&#45;&gt;486898233</title>
<path fill="none" stroke="black" d="M456,-215.7C456,-207.98 456,-198.71 456,-190.11"/>
<polygon fill="black" stroke="black" points="459.5,-190.1 456,-180.1 452.5,-190.1 459.5,-190.1"/>
</g>
<!-- 650023597 -->
<g id="node23" class="node">
<title>650023597</title>
<ellipse fill="none" stroke="black" cx="546" cy="-162" rx="45.49" ry="18"/>
<text text-anchor="middle" x="546" y="-158.3" font-family="Times New Roman,serif" font-size="14.00">ext_name</text>
</g>
<!-- 1282473384&#45;&gt;650023597 -->
<g id="edge19" class="edge">
<title>1282473384&#45;&gt;650023597</title>
<path fill="none" stroke="black" d="M472.93,-219.83C485.61,-209.97 503.25,-196.25 518.02,-184.76"/>
<polygon fill="black" stroke="black" points="520.58,-187.2 526.33,-178.3 516.28,-181.68 520.58,-187.2"/>
</g>
<!-- 13326370 -->
<g id="node19" class="node">
<title>13326370</title>
<ellipse fill="none" stroke="black" cx="420" cy="-90" rx="27" ry="18"/>
<text text-anchor="middle" x="420" y="-86.3" font-family="Times New Roman,serif" font-size="14.00" fill="blue">*</text>
</g>
<!-- 486898233&#45;&gt;13326370 -->
<g id="edge14" class="edge">
<title>486898233&#45;&gt;13326370</title>
<path fill="none" stroke="black" d="M447.65,-144.76C443.29,-136.28 437.85,-125.71 432.96,-116.2"/>
<polygon fill="black" stroke="black" points="435.99,-114.44 428.3,-107.15 429.77,-117.64 435.99,-114.44"/>
</g>
<!-- 1196765369 -->
<g id="node20" class="node">
<title>1196765369</title>
<ellipse fill="none" stroke="black" cx="492" cy="-90" rx="27" ry="18"/>
<text text-anchor="middle" x="492" y="-86.3" font-family="Times New Roman,serif" font-size="14.00">P</text>
</g>
<!-- 486898233&#45;&gt;1196765369 -->
<g id="edge17" class="edge">
<title>486898233&#45;&gt;1196765369</title>
<path fill="none" stroke="black" d="M464.35,-144.76C468.71,-136.28 474.15,-125.71 479.04,-116.2"/>
<polygon fill="black" stroke="black" points="482.23,-117.64 483.7,-107.15 476.01,-114.44 482.23,-117.64"/>
</g>
<!-- 1268650975 -->
<g id="node21" class="node">
<title>1268650975</title>
<ellipse fill="none" stroke="black" cx="456" cy="-18" rx="27" ry="18"/>
<text text-anchor="middle" x="456" y="-14.3" font-family="Times New Roman,serif" font-size="14.00" fill="blue">*</text>
</g>
<!-- 1196765369&#45;&gt;1268650975 -->
<g id="edge15" class="edge">
<title>1196765369&#45;&gt;1268650975</title>
<path fill="none" stroke="black" d="M483.65,-72.76C479.29,-64.28 473.85,-53.71 468.96,-44.2"/>
<polygon fill="black" stroke="black" points="471.99,-42.44 464.3,-35.15 465.77,-45.64 471.99,-42.44"/>
</g>
<!-- 731395981 -->
<g id="node22" class="node">
<title>731395981</title>
<ellipse fill="none" stroke="black" cx="528" cy="-18" rx="27" ry="18"/>
<text text-anchor="middle" x="528" y="-14.3" font-family="Times New Roman,serif" font-size="14.00">P</text>
</g>
<!-- 1196765369&#45;&gt;731395981 -->
<g id="edge16" class="edge">
<title>1196765369&#45;&gt;731395981</title>
<path fill="none" stroke="black" d="M500.35,-72.76C504.71,-64.28 510.15,-53.71 515.04,-44.2"/>
<polygon fill="black" stroke="black" points="518.23,-45.64 519.7,-35.15 512.01,-42.44 518.23,-45.64"/>
</g>
</g>
</svg>
