<?xml version="1.0" encoding="UTF-8" standalone="no"?>
<!DOCTYPE svg PUBLIC "-//W3C//DTD SVG 1.1//EN"
 "http://www.w3.org/Graphics/SVG/1.1/DTD/svg11.dtd">
<!-- Generated by graphviz version 2.50.0 (20211204.2007)
 -->
<!-- Pages: 1 -->
<svg width="445pt" height="548pt"
 viewBox="0.00 0.00 445.00 548.00" xmlns="http://www.w3.org/2000/svg" xmlns:xlink="http://www.w3.org/1999/xlink">
<g id="graph0" class="graph" transform="scale(1 1) rotate(0) translate(4 544)">
<polygon fill="white" stroke="transparent" points="-4,4 -4,-544 441,-544 441,4 -4,4"/>
<!-- 884457408 -->
<g id="node1" class="node">
<title>884457408</title>
<ellipse fill="none" stroke="black" cx="213" cy="-522" rx="27" ry="18"/>
<text text-anchor="middle" x="213" y="-518.3" font-family="Times New Roman,serif" font-size="14.00">S</text>
</g>
<!-- 1753447031 -->
<g id="node2" class="node">
<title>1753447031</title>
<ellipse fill="none" stroke="black" cx="102" cy="-450" rx="27" ry="18"/>
<text text-anchor="middle" x="102" y="-446.3" font-family="Times New Roman,serif" font-size="14.00">F</text>
</g>
<!-- 884457408&#45;&gt;1753447031 -->
<g id="edge8" class="edge">
<title>884457408&#45;&gt;1753447031</title>
<path fill="none" stroke="black" d="M193.92,-508.97C176.29,-497.85 149.88,-481.19 129.88,-468.58"/>
<polygon fill="black" stroke="black" points="131.53,-465.48 121.2,-463.11 127.8,-471.41 131.53,-465.48"/>
</g>
<!-- 1810132623 -->
<g id="node10" class="node">
<title>1810132623</title>
<ellipse fill="none" stroke="black" cx="177" cy="-450" rx="27" ry="18"/>
<text text-anchor="middle" x="177" y="-446.3" font-family="Times New Roman,serif" font-size="14.00" fill="blue">(</text>
</g>
<!-- 884457408&#45;&gt;1810132623 -->
<g id="edge9" class="edge">
<title>884457408&#45;&gt;1810132623</title>
<path fill="none" stroke="black" d="M204.65,-504.76C200.29,-496.28 194.85,-485.71 189.96,-476.2"/>
<polygon fill="black" stroke="black" points="192.99,-474.44 185.3,-467.15 186.77,-477.64 192.99,-474.44"/>
</g>
<!-- 1698156408 -->
<g id="node11" class="node">
<title>1698156408</title>
<ellipse fill="none" stroke="black" cx="249" cy="-450" rx="27" ry="18"/>
<text text-anchor="middle" x="249" y="-446.3" font-family="Times New Roman,serif" font-size="14.00">args</text>
</g>
<!-- 884457408&#45;&gt;1698156408 -->
<g id="edge23" class="edge">
<title>884457408&#45;&gt;1698156408</title>
<path fill="none" stroke="black" d="M221.35,-504.76C225.71,-496.28 231.15,-485.71 236.04,-476.2"/>
<polygon fill="black" stroke="black" points="239.23,-477.64 240.7,-467.15 233.01,-474.44 239.23,-477.64"/>
</g>
<!-- 1740035246 -->
<g id="node25" class="node">
<title>1740035246</title>
<ellipse fill="none" stroke="black" cx="321" cy="-450" rx="27" ry="18"/>
<text text-anchor="middle" x="321" y="-446.3" font-family="Times New Roman,serif" font-size="14.00" fill="blue">);</text>
</g>
<!-- 884457408&#45;&gt;1740035246 -->
<g id="edge24" class="edge">
<title>884457408&#45;&gt;1740035246</title>
<path fill="none" stroke="black" d="M231.81,-508.81C249,-497.67 274.62,-481.06 293.99,-468.5"/>
<polygon fill="black" stroke="black" points="295.92,-471.43 302.4,-463.05 292.11,-465.56 295.92,-471.43"/>
</g>
<!-- 1622006612 -->
<g id="node3" class="node">
<title>1622006612</title>
<ellipse fill="none" stroke="black" cx="27" cy="-378" rx="27" ry="18"/>
<text text-anchor="middle" x="27" y="-374.3" font-family="Times New Roman,serif" font-size="14.00" fill="blue">type</text>
</g>
<!-- 1753447031&#45;&gt;1622006612 -->
<g id="edge1" class="edge">
<title>1753447031&#45;&gt;1622006612</title>
<path fill="none" stroke="black" d="M86.82,-434.83C76.15,-424.87 61.68,-411.37 49.65,-400.14"/>
<polygon fill="black" stroke="black" points="51.85,-397.41 42.15,-393.14 47.08,-402.53 51.85,-397.41"/>
</g>
<!-- 2008362258 -->
<g id="node4" class="node">
<title>2008362258</title>
<ellipse fill="none" stroke="black" cx="99" cy="-378" rx="27" ry="18"/>
<text text-anchor="middle" x="99" y="-374.3" font-family="Times New Roman,serif" font-size="14.00">P</text>
</g>
<!-- 1753447031&#45;&gt;2008362258 -->
<g id="edge6" class="edge">
<title>1753447031&#45;&gt;2008362258</title>
<path fill="none" stroke="black" d="M101.26,-431.7C100.93,-423.98 100.53,-414.71 100.16,-406.11"/>
<polygon fill="black" stroke="black" points="103.66,-405.95 99.73,-396.1 96.66,-406.25 103.66,-405.95"/>
</g>
<!-- 760563749 -->
<g id="node9" class="node">
<title>760563749</title>
<ellipse fill="none" stroke="black" cx="174" cy="-378" rx="29.8" ry="18"/>
<text text-anchor="middle" x="174" y="-374.3" font-family="Times New Roman,serif" font-size="14.00" fill="blue">name</text>
</g>
<!-- 1753447031&#45;&gt;760563749 -->
<g id="edge7" class="edge">
<title>1753447031&#45;&gt;760563749</title>
<path fill="none" stroke="black" d="M116.57,-434.83C126.59,-425.1 140.08,-411.98 151.47,-400.9"/>
<polygon fill="black" stroke="black" points="154.23,-403.11 158.96,-393.63 149.35,-398.09 154.23,-403.11"/>
</g>
<!-- 66233253 -->
<g id="node5" class="node">
<title>66233253</title>
<ellipse fill="none" stroke="black" cx="30" cy="-306" rx="27" ry="18"/>
<text text-anchor="middle" x="30" y="-302.3" font-family="Times New Roman,serif" font-size="14.00" fill="blue">*</text>
</g>
<!-- 2008362258&#45;&gt;66233253 -->
<g id="edge2" class="edge">
<title>2008362258&#45;&gt;66233253</title>
<path fill="none" stroke="black" d="M84.7,-362.5C75.08,-352.73 62.22,-339.69 51.39,-328.7"/>
<polygon fill="black" stroke="black" points="53.79,-326.15 44.28,-321.49 48.81,-331.06 53.79,-326.15"/>
</g>
<!-- 1632392469 -->
<g id="node6" class="node">
<title>1632392469</title>
<ellipse fill="none" stroke="black" cx="102" cy="-306" rx="27" ry="18"/>
<text text-anchor="middle" x="102" y="-302.3" font-family="Times New Roman,serif" font-size="14.00">P</text>
</g>
<!-- 2008362258&#45;&gt;1632392469 -->
<g id="edge5" class="edge">
<title>2008362258&#45;&gt;1632392469</title>
<path fill="none" stroke="black" d="M99.74,-359.7C100.07,-351.98 100.47,-342.71 100.84,-334.11"/>
<polygon fill="black" stroke="black" points="104.34,-334.25 101.27,-324.1 97.34,-333.95 104.34,-334.25"/>
</g>
<!-- 1286783232 -->
<g id="node7" class="node">
<title>1286783232</title>
<ellipse fill="none" stroke="black" cx="50" cy="-234" rx="27" ry="18"/>
<text text-anchor="middle" x="50" y="-230.3" font-family="Times New Roman,serif" font-size="14.00" fill="blue">*</text>
</g>
<!-- 1632392469&#45;&gt;1286783232 -->
<g id="edge3" class="edge">
<title>1632392469&#45;&gt;1286783232</title>
<path fill="none" stroke="black" d="M90.46,-289.46C83.73,-280.4 75.1,-268.79 67.54,-258.61"/>
<polygon fill="black" stroke="black" points="70.28,-256.43 61.51,-250.49 64.66,-260.61 70.28,-256.43"/>
</g>
<!-- 1874154700 -->
<g id="node8" class="node">
<title>1874154700</title>
<ellipse fill="none" stroke="black" cx="122" cy="-234" rx="27" ry="18"/>
<text text-anchor="middle" x="122" y="-230.3" font-family="Times New Roman,serif" font-size="14.00">P</text>
</g>
<!-- 1632392469&#45;&gt;1874154700 -->
<g id="edge4" class="edge">
<title>1632392469&#45;&gt;1874154700</title>
<path fill="none" stroke="black" d="M106.84,-288.05C109.1,-280.14 111.85,-270.54 114.37,-261.69"/>
<polygon fill="black" stroke="black" points="117.82,-262.37 117.2,-251.79 111.09,-260.44 117.82,-262.37"/>
</g>
<!-- 759156157 -->
<g id="node12" class="node">
<title>759156157</title>
<ellipse fill="none" stroke="black" cx="249" cy="-378" rx="27" ry="18"/>
<text text-anchor="middle" x="249" y="-374.3" font-family="Times New Roman,serif" font-size="14.00">T</text>
</g>
<!-- 1698156408&#45;&gt;759156157 -->
<g id="edge21" class="edge">
<title>1698156408&#45;&gt;759156157</title>
<path fill="none" stroke="black" d="M249,-431.7C249,-423.98 249,-414.71 249,-406.11"/>
<polygon fill="black" stroke="black" points="252.5,-406.1 249,-396.1 245.5,-406.1 252.5,-406.1"/>
</g>
<!-- 1635546341 -->
<g id="node24" class="node">
<title>1635546341</title>
<ellipse fill="none" stroke="black" cx="321" cy="-378" rx="27" ry="18"/>
<text text-anchor="middle" x="321" y="-374.3" font-family="Times New Roman,serif" font-size="14.00">X</text>
</g>
<!-- 1698156408&#45;&gt;1635546341 -->
<g id="edge22" class="edge">
<title>1698156408&#45;&gt;1635546341</title>
<path fill="none" stroke="black" d="M263.57,-434.83C273.75,-424.94 287.52,-411.55 299.03,-400.36"/>
<polygon fill="black" stroke="black" points="301.47,-402.87 306.2,-393.38 296.59,-397.85 301.47,-402.87"/>
</g>
<!-- 895947612 -->
<g id="node13" class="node">
<title>895947612</title>
<ellipse fill="none" stroke="black" cx="177" cy="-306" rx="27" ry="18"/>
<text text-anchor="middle" x="177" y="-302.3" font-family="Times New Roman,serif" font-size="14.00" fill="blue">type</text>
</g>
<!-- 759156157&#45;&gt;895947612 -->
<g id="edge10" class="edge">
<title>759156157&#45;&gt;895947612</title>
<path fill="none" stroke="black" d="M234.43,-362.83C224.25,-352.94 210.48,-339.55 198.97,-328.36"/>
<polygon fill="black" stroke="black" points="201.41,-325.85 191.8,-321.38 196.53,-330.87 201.41,-325.85"/>
</g>
<!-- 1225373914 -->
<g id="node14" class="node">
<title>1225373914</title>
<ellipse fill="none" stroke="black" cx="249" cy="-306" rx="27" ry="18"/>
<text text-anchor="middle" x="249" y="-302.3" font-family="Times New Roman,serif" font-size="14.00">P</text>
</g>
<!-- 759156157&#45;&gt;1225373914 -->
<g id="edge19" class="edge">
<title>759156157&#45;&gt;1225373914</title>
<path fill="none" stroke="black" d="M249,-359.7C249,-351.98 249,-342.71 249,-334.11"/>
<polygon fill="black" stroke="black" points="252.5,-334.1 249,-324.1 245.5,-334.1 252.5,-334.1"/>
</g>
<!-- 60830820 -->
<g id="node23" class="node">
<title>60830820</title>
<ellipse fill="none" stroke="black" cx="339" cy="-306" rx="45.49" ry="18"/>
<text text-anchor="middle" x="339" y="-302.3" font-family="Times New Roman,serif" font-size="14.00">ext_name</text>
</g>
<!-- 759156157&#45;&gt;60830820 -->
<g id="edge20" class="edge">
<title>759156157&#45;&gt;60830820</title>
<path fill="none" stroke="black" d="M265.93,-363.83C278.61,-353.97 296.25,-340.25 311.02,-328.76"/>
<polygon fill="black" stroke="black" points="313.58,-331.2 319.33,-322.3 309.28,-325.68 313.58,-331.2"/>
</g>
<!-- 846492085 -->
<g id="node15" class="node">
<title>846492085</title>
<ellipse fill="none" stroke="black" cx="230" cy="-234" rx="27" ry="18"/>
<text text-anchor="middle" x="230" y="-230.3" font-family="Times New Roman,serif" font-size="14.00" fill="blue">*</text>
</g>
<!-- 1225373914&#45;&gt;846492085 -->
<g id="edge11" class="edge">
<title>1225373914&#45;&gt;846492085</title>
<path fill="none" stroke="black" d="M244.4,-288.05C242.25,-280.14 239.65,-270.54 237.24,-261.69"/>
<polygon fill="black" stroke="black" points="240.55,-260.52 234.56,-251.79 233.8,-262.36 240.55,-260.52"/>
</g>
<!-- 1712669532 -->
<g id="node16" class="node">
<title>1712669532</title>
<ellipse fill="none" stroke="black" cx="302" cy="-234" rx="27" ry="18"/>
<text text-anchor="middle" x="302" y="-230.3" font-family="Times New Roman,serif" font-size="14.00">P</text>
</g>
<!-- 1225373914&#45;&gt;1712669532 -->
<g id="edge18" class="edge">
<title>1225373914&#45;&gt;1712669532</title>
<path fill="none" stroke="black" d="M260.76,-289.46C267.62,-280.4 276.42,-268.79 284.12,-258.61"/>
<polygon fill="black" stroke="black" points="287.02,-260.58 290.27,-250.49 281.44,-256.35 287.02,-260.58"/>
</g>
<!-- 1096283470 -->
<g id="node17" class="node">
<title>1096283470</title>
<ellipse fill="none" stroke="black" cx="266" cy="-162" rx="27" ry="18"/>
<text text-anchor="middle" x="266" y="-158.3" font-family="Times New Roman,serif" font-size="14.00" fill="blue">*</text>
</g>
<!-- 1712669532&#45;&gt;1096283470 -->
<g id="edge12" class="edge">
<title>1712669532&#45;&gt;1096283470</title>
<path fill="none" stroke="black" d="M293.65,-216.76C289.29,-208.28 283.85,-197.71 278.96,-188.2"/>
<polygon fill="black" stroke="black" points="281.99,-186.44 274.3,-179.15 275.77,-189.64 281.99,-186.44"/>
</g>
<!-- 423031029 -->
<g id="node18" class="node">
<title>423031029</title>
<ellipse fill="none" stroke="black" cx="338" cy="-162" rx="27" ry="18"/>
<text text-anchor="middle" x="338" y="-158.3" font-family="Times New Roman,serif" font-size="14.00">P</text>
</g>
<!-- 1712669532&#45;&gt;423031029 -->
<g id="edge17" class="edge">
<title>1712669532&#45;&gt;423031029</title>
<path fill="none" stroke="black" d="M310.35,-216.76C314.71,-208.28 320.15,-197.71 325.04,-188.2"/>
<polygon fill="black" stroke="black" points="328.23,-189.64 329.7,-179.15 322.01,-186.44 328.23,-189.64"/>
</g>
<!-- 152005629 -->
<g id="node19" class="node">
<title>152005629</title>
<ellipse fill="none" stroke="black" cx="302" cy="-90" rx="27" ry="18"/>
<text text-anchor="middle" x="302" y="-86.3" font-family="Times New Roman,serif" font-size="14.00" fill="blue">*</text>
</g>
<!-- 423031029&#45;&gt;152005629 -->
<g id="edge13" class="edge">
<title>423031029&#45;&gt;152005629</title>
<path fill="none" stroke="black" d="M329.65,-144.76C325.29,-136.28 319.85,-125.71 314.96,-116.2"/>
<polygon fill="black" stroke="black" points="317.99,-114.44 310.3,-107.15 311.77,-117.64 317.99,-114.44"/>
</g>
<!-- 1796488937 -->
<g id="node20" class="node">
<title>1796488937</title>
<ellipse fill="none" stroke="black" cx="374" cy="-90" rx="27" ry="18"/>
<text text-anchor="middle" x="374" y="-86.3" font-family="Times New Roman,serif" font-size="14.00">P</text>
</g>
<!-- 423031029&#45;&gt;1796488937 -->
<g id="edge16" class="edge">
<title>423031029&#45;&gt;1796488937</title>
<path fill="none" stroke="black" d="M346.35,-144.76C350.71,-136.28 356.15,-125.71 361.04,-116.2"/>
<polygon fill="black" stroke="black" points="364.23,-117.64 365.7,-107.15 358.01,-114.44 364.23,-117.64"/>
</g>
<!-- 75457651 -->
<g id="node21" class="node">
<title>75457651</title>
<ellipse fill="none" stroke="black" cx="338" cy="-18" rx="27" ry="18"/>
<text text-anchor="middle" x="338" y="-14.3" font-family="Times New Roman,serif" font-size="14.00" fill="blue">*</text>
</g>
<!-- 1796488937&#45;&gt;75457651 -->
<g id="edge14" class="edge">
<title>1796488937&#45;&gt;75457651</title>
<path fill="none" stroke="black" d="M365.65,-72.76C361.29,-64.28 355.85,-53.71 350.96,-44.2"/>
<polygon fill="black" stroke="black" points="353.99,-42.44 346.3,-35.15 347.77,-45.64 353.99,-42.44"/>
</g>
<!-- 362239120 -->
<g id="node22" class="node">
<title>362239120</title>
<ellipse fill="none" stroke="black" cx="410" cy="-18" rx="27" ry="18"/>
<text text-anchor="middle" x="410" y="-14.3" font-family="Times New Roman,serif" font-size="14.00">P</text>
</g>
<!-- 1796488937&#45;&gt;362239120 -->
<g id="edge15" class="edge">
<title>1796488937&#45;&gt;362239120</title>
<path fill="none" stroke="black" d="M382.35,-72.76C386.71,-64.28 392.15,-53.71 397.04,-44.2"/>
<polygon fill="black" stroke="black" points="400.23,-45.64 401.7,-35.15 394.01,-42.44 400.23,-45.64"/>
</g>
</g>
</svg>
