<?xml version="1.0" encoding="UTF-8" standalone="no"?>
<!DOCTYPE svg PUBLIC "-//W3C//DTD SVG 1.1//EN"
 "http://www.w3.org/Graphics/SVG/1.1/DTD/svg11.dtd">
<!-- Generated by graphviz version 2.50.0 (20211204.2007)
 -->
<!-- Pages: 1 -->
<svg width="599pt" height="332pt"
 viewBox="0.00 0.00 599.50 332.00" xmlns="http://www.w3.org/2000/svg" xmlns:xlink="http://www.w3.org/1999/xlink">
<g id="graph0" class="graph" transform="scale(1 1) rotate(0) translate(4 328)">
<polygon fill="white" stroke="transparent" points="-4,4 -4,-328 595.5,-328 595.5,4 -4,4"/>
<!-- 793589513 -->
<g id="node1" class="node">
<title>793589513</title>
<ellipse fill="none" stroke="black" cx="213" cy="-306" rx="27" ry="18"/>
<text text-anchor="middle" x="213" y="-302.3" font-family="Times New Roman,serif" font-size="14.00">S</text>
</g>
<!-- 764977973 -->
<g id="node2" class="node">
<title>764977973</title>
<ellipse fill="none" stroke="black" cx="102" cy="-234" rx="27" ry="18"/>
<text text-anchor="middle" x="102" y="-230.3" font-family="Times New Roman,serif" font-size="14.00">F</text>
</g>
<!-- 793589513&#45;&gt;764977973 -->
<g id="edge4" class="edge">
<title>793589513&#45;&gt;764977973</title>
<path fill="none" stroke="black" d="M193.92,-292.97C176.29,-281.85 149.88,-265.19 129.88,-252.58"/>
<polygon fill="black" stroke="black" points="131.53,-249.48 121.2,-247.11 127.8,-255.41 131.53,-249.48"/>
</g>
<!-- 381259350 -->
<g id="node6" class="node">
<title>381259350</title>
<ellipse fill="none" stroke="black" cx="177" cy="-234" rx="27" ry="18"/>
<text text-anchor="middle" x="177" y="-230.3" font-family="Times New Roman,serif" font-size="14.00" fill="blue">(</text>
</g>
<!-- 793589513&#45;&gt;381259350 -->
<g id="edge5" class="edge">
<title>793589513&#45;&gt;381259350</title>
<path fill="none" stroke="black" d="M204.65,-288.76C200.29,-280.28 194.85,-269.71 189.96,-260.2"/>
<polygon fill="black" stroke="black" points="192.99,-258.44 185.3,-251.15 186.77,-261.64 192.99,-258.44"/>
</g>
<!-- 284720968 -->
<g id="node7" class="node">
<title>284720968</title>
<ellipse fill="none" stroke="black" cx="249" cy="-234" rx="27" ry="18"/>
<text text-anchor="middle" x="249" y="-230.3" font-family="Times New Roman,serif" font-size="14.00">args</text>
</g>
<!-- 793589513&#45;&gt;284720968 -->
<g id="edge17" class="edge">
<title>793589513&#45;&gt;284720968</title>
<path fill="none" stroke="black" d="M221.35,-288.76C225.71,-280.28 231.15,-269.71 236.04,-260.2"/>
<polygon fill="black" stroke="black" points="239.23,-261.64 240.7,-251.15 233.01,-258.44 239.23,-261.64"/>
</g>
<!-- 189568618 -->
<g id="node19" class="node">
<title>189568618</title>
<ellipse fill="none" stroke="black" cx="321" cy="-234" rx="27" ry="18"/>
<text text-anchor="middle" x="321" y="-230.3" font-family="Times New Roman,serif" font-size="14.00" fill="blue">);</text>
</g>
<!-- 793589513&#45;&gt;189568618 -->
<g id="edge18" class="edge">
<title>793589513&#45;&gt;189568618</title>
<path fill="none" stroke="black" d="M231.81,-292.81C249,-281.67 274.62,-265.06 293.99,-252.5"/>
<polygon fill="black" stroke="black" points="295.92,-255.43 302.4,-247.05 292.11,-249.56 295.92,-255.43"/>
</g>
<!-- 1828972342 -->
<g id="node3" class="node">
<title>1828972342</title>
<ellipse fill="none" stroke="black" cx="27" cy="-162" rx="27" ry="18"/>
<text text-anchor="middle" x="27" y="-158.3" font-family="Times New Roman,serif" font-size="14.00" fill="blue">type</text>
</g>
<!-- 764977973&#45;&gt;1828972342 -->
<g id="edge1" class="edge">
<title>764977973&#45;&gt;1828972342</title>
<path fill="none" stroke="black" d="M86.82,-218.83C76.15,-208.87 61.68,-195.37 49.65,-184.14"/>
<polygon fill="black" stroke="black" points="51.85,-181.41 42.15,-177.14 47.08,-186.53 51.85,-181.41"/>
</g>
<!-- 931919113 -->
<g id="node4" class="node">
<title>931919113</title>
<ellipse fill="none" stroke="black" cx="99" cy="-162" rx="27" ry="18"/>
<text text-anchor="middle" x="99" y="-158.3" font-family="Times New Roman,serif" font-size="14.00">P</text>
</g>
<!-- 764977973&#45;&gt;931919113 -->
<g id="edge2" class="edge">
<title>764977973&#45;&gt;931919113</title>
<path fill="none" stroke="black" d="M101.26,-215.7C100.93,-207.98 100.53,-198.71 100.16,-190.11"/>
<polygon fill="black" stroke="black" points="103.66,-189.95 99.73,-180.1 96.66,-190.25 103.66,-189.95"/>
</g>
<!-- 1607521710 -->
<g id="node5" class="node">
<title>1607521710</title>
<ellipse fill="none" stroke="black" cx="174" cy="-162" rx="29.8" ry="18"/>
<text text-anchor="middle" x="174" y="-158.3" font-family="Times New Roman,serif" font-size="14.00" fill="blue">name</text>
</g>
<!-- 764977973&#45;&gt;1607521710 -->
<g id="edge3" class="edge">
<title>764977973&#45;&gt;1607521710</title>
<path fill="none" stroke="black" d="M116.57,-218.83C126.59,-209.1 140.08,-195.98 151.47,-184.9"/>
<polygon fill="black" stroke="black" points="154.23,-187.11 158.96,-177.63 149.35,-182.09 154.23,-187.11"/>
</g>
<!-- 363771819 -->
<g id="node8" class="node">
<title>363771819</title>
<ellipse fill="none" stroke="black" cx="249" cy="-162" rx="27" ry="18"/>
<text text-anchor="middle" x="249" y="-158.3" font-family="Times New Roman,serif" font-size="14.00">T</text>
</g>
<!-- 284720968&#45;&gt;363771819 -->
<g id="edge9" class="edge">
<title>284720968&#45;&gt;363771819</title>
<path fill="none" stroke="black" d="M249,-215.7C249,-207.98 249,-198.71 249,-190.11"/>
<polygon fill="black" stroke="black" points="252.5,-190.1 249,-180.1 245.5,-190.1 252.5,-190.1"/>
</g>
<!-- 1915910607 -->
<g id="node12" class="node">
<title>1915910607</title>
<ellipse fill="none" stroke="black" cx="420" cy="-162" rx="27" ry="18"/>
<text text-anchor="middle" x="420" y="-158.3" font-family="Times New Roman,serif" font-size="14.00">X</text>
</g>
<!-- 284720968&#45;&gt;1915910607 -->
<g id="edge16" class="edge">
<title>284720968&#45;&gt;1915910607</title>
<path fill="none" stroke="black" d="M270.21,-222.69C275.05,-220.43 280.18,-218.08 285,-216 319.59,-201.06 359.86,-185.48 387.36,-175.11"/>
<polygon fill="black" stroke="black" points="388.75,-178.33 396.88,-171.54 386.29,-171.78 388.75,-178.33"/>
</g>
<!-- 2129789493 -->
<g id="node9" class="node">
<title>2129789493</title>
<ellipse fill="none" stroke="black" cx="132" cy="-90" rx="27" ry="18"/>
<text text-anchor="middle" x="132" y="-86.3" font-family="Times New Roman,serif" font-size="14.00" fill="blue">type</text>
</g>
<!-- 363771819&#45;&gt;2129789493 -->
<g id="edge6" class="edge">
<title>363771819&#45;&gt;2129789493</title>
<path fill="none" stroke="black" d="M229.42,-149.28C210.52,-137.98 181.71,-120.74 160.31,-107.94"/>
<polygon fill="black" stroke="black" points="162.03,-104.89 151.65,-102.75 158.43,-110.89 162.03,-104.89"/>
</g>
<!-- 668386784 -->
<g id="node10" class="node">
<title>668386784</title>
<ellipse fill="none" stroke="black" cx="204" cy="-90" rx="27" ry="18"/>
<text text-anchor="middle" x="204" y="-86.3" font-family="Times New Roman,serif" font-size="14.00">P</text>
</g>
<!-- 363771819&#45;&gt;668386784 -->
<g id="edge7" class="edge">
<title>363771819&#45;&gt;668386784</title>
<path fill="none" stroke="black" d="M238.79,-145.12C233.15,-136.34 226.03,-125.26 219.7,-115.42"/>
<polygon fill="black" stroke="black" points="222.52,-113.34 214.17,-106.82 216.63,-117.13 222.52,-113.34"/>
</g>
<!-- 1329552164 -->
<g id="node11" class="node">
<title>1329552164</title>
<ellipse fill="none" stroke="black" cx="294" cy="-90" rx="45.49" ry="18"/>
<text text-anchor="middle" x="294" y="-86.3" font-family="Times New Roman,serif" font-size="14.00">ext_name</text>
</g>
<!-- 363771819&#45;&gt;1329552164 -->
<g id="edge8" class="edge">
<title>363771819&#45;&gt;1329552164</title>
<path fill="none" stroke="black" d="M259.21,-145.12C264.69,-136.59 271.57,-125.89 277.77,-116.25"/>
<polygon fill="black" stroke="black" points="280.74,-118.1 283.2,-107.8 274.85,-114.32 280.74,-118.1"/>
</g>
<!-- 2065951873 -->
<g id="node13" class="node">
<title>2065951873</title>
<ellipse fill="none" stroke="black" cx="384" cy="-90" rx="27" ry="18"/>
<text text-anchor="middle" x="384" y="-86.3" font-family="Times New Roman,serif" font-size="14.00" fill="blue">,</text>
</g>
<!-- 1915910607&#45;&gt;2065951873 -->
<g id="edge10" class="edge">
<title>1915910607&#45;&gt;2065951873</title>
<path fill="none" stroke="black" d="M411.65,-144.76C407.29,-136.28 401.85,-125.71 396.96,-116.2"/>
<polygon fill="black" stroke="black" points="399.99,-114.44 392.3,-107.15 393.77,-117.64 399.99,-114.44"/>
</g>
<!-- 1531448569 -->
<g id="node14" class="node">
<title>1531448569</title>
<ellipse fill="none" stroke="black" cx="456" cy="-90" rx="27" ry="18"/>
<text text-anchor="middle" x="456" y="-86.3" font-family="Times New Roman,serif" font-size="14.00">T</text>
</g>
<!-- 1915910607&#45;&gt;1531448569 -->
<g id="edge14" class="edge">
<title>1915910607&#45;&gt;1531448569</title>
<path fill="none" stroke="black" d="M428.35,-144.76C432.71,-136.28 438.15,-125.71 443.04,-116.2"/>
<polygon fill="black" stroke="black" points="446.23,-117.64 447.7,-107.15 440.01,-114.44 446.23,-117.64"/>
</g>
<!-- 1867083167 -->
<g id="node18" class="node">
<title>1867083167</title>
<ellipse fill="none" stroke="black" cx="528" cy="-90" rx="27" ry="18"/>
<text text-anchor="middle" x="528" y="-86.3" font-family="Times New Roman,serif" font-size="14.00">X</text>
</g>
<!-- 1915910607&#45;&gt;1867083167 -->
<g id="edge15" class="edge">
<title>1915910607&#45;&gt;1867083167</title>
<path fill="none" stroke="black" d="M438.81,-148.81C456,-137.67 481.62,-121.06 500.99,-108.5"/>
<polygon fill="black" stroke="black" points="502.92,-111.43 509.4,-103.05 499.11,-105.56 502.92,-111.43"/>
</g>
<!-- 1791741888 -->
<g id="node15" class="node">
<title>1791741888</title>
<ellipse fill="none" stroke="black" cx="384" cy="-18" rx="27" ry="18"/>
<text text-anchor="middle" x="384" y="-14.3" font-family="Times New Roman,serif" font-size="14.00" fill="blue">type</text>
</g>
<!-- 1531448569&#45;&gt;1791741888 -->
<g id="edge11" class="edge">
<title>1531448569&#45;&gt;1791741888</title>
<path fill="none" stroke="black" d="M441.43,-74.83C431.25,-64.94 417.48,-51.55 405.97,-40.36"/>
<polygon fill="black" stroke="black" points="408.41,-37.85 398.8,-33.38 403.53,-42.87 408.41,-37.85"/>
</g>
<!-- 1595428806 -->
<g id="node16" class="node">
<title>1595428806</title>
<ellipse fill="none" stroke="black" cx="456" cy="-18" rx="27" ry="18"/>
<text text-anchor="middle" x="456" y="-14.3" font-family="Times New Roman,serif" font-size="14.00">P</text>
</g>
<!-- 1531448569&#45;&gt;1595428806 -->
<g id="edge12" class="edge">
<title>1531448569&#45;&gt;1595428806</title>
<path fill="none" stroke="black" d="M456,-71.7C456,-63.98 456,-54.71 456,-46.11"/>
<polygon fill="black" stroke="black" points="459.5,-46.1 456,-36.1 452.5,-46.1 459.5,-46.1"/>
</g>
<!-- 1072408673 -->
<g id="node17" class="node">
<title>1072408673</title>
<ellipse fill="none" stroke="black" cx="546" cy="-18" rx="45.49" ry="18"/>
<text text-anchor="middle" x="546" y="-14.3" font-family="Times New Roman,serif" font-size="14.00">ext_name</text>
</g>
<!-- 1531448569&#45;&gt;1072408673 -->
<g id="edge13" class="edge">
<title>1531448569&#45;&gt;1072408673</title>
<path fill="none" stroke="black" d="M472.93,-75.83C485.61,-65.97 503.25,-52.25 518.02,-40.76"/>
<polygon fill="black" stroke="black" points="520.58,-43.2 526.33,-34.3 516.28,-37.68 520.58,-43.2"/>
</g>
</g>
</svg>
